<?xml version="1.0" standalone="no"?>
<!DOCTYPE svg PUBLIC "-//W3C//DTD SVG 20010904//EN"
 "http://www.w3.org/TR/2001/REC-SVG-20010904/DTD/svg10.dtd">
<svg version="1.0" xmlns="http://www.w3.org/2000/svg"
 width="500.000000pt" height="500.000000pt" viewBox="0 0 500.000000 500.000000"
 preserveAspectRatio="xMidYMid meet">
<metadata>
Created by potrace 1.14, written by Peter Selinger 2001-2017
</metadata>
<g transform="translate(0.000000,500.000000) scale(0.100000,-0.100000)"
fill="#000000" stroke="none">
<path d="M710 2445 l0 -1275 780 0 780 0 0 260 0 260 -25 0 -25 0 0 -240 0
-240 -727 2 -728 3 -3 1228 -2 1227 730 0 730 0 0 -235 0 -235 25 0 25 0 0
260 0 260 -780 0 -780 0 0 -1275z"/>
<path d="M1428 3276 c-120 -50 -207 -141 -249 -261 -17 -49 -20 -77 -17 -156
3 -84 8 -104 37 -163 70 -142 183 -217 365 -241 165 -21 240 -66 298 -178 29
-58 36 -168 14 -235 -19 -56 -90 -143 -137 -168 l-29 -15 0 151 c0 260 9 253
-355 260 l-270 5 -3 218 -2 217 -120 0 -120 0 0 -565 0 -565 120 0 120 0 2
218 3 217 185 0 185 0 3 -217 2 -218 103 0 c176 0 295 47 412 164 115 115 165
235 165 396 -1 139 -28 227 -106 336 -98 138 -281 233 -454 234 -127 1 -208
136 -150 250 31 61 73 85 150 85 52 0 72 -5 98 -23 35 -25 72 -88 72 -122 0
-19 6 -20 123 -20 68 0 126 2 129 5 2 3 1 30 -3 61 -17 129 -116 260 -238 318
-59 28 -77 31 -171 34 -92 2 -112 -1 -162 -22z"/>
</g>
</svg>
